{"title":"The Colony 2013 DVDRip X264 AC-3-FooKaS","uid":8721748,"size":1930735627,"categoryP":"video","categoryS":"movies","magnet":"?xt=urn:btih:5d6c29ccd6cf837f88dcfd31ce7eb55944f6fa8a&amp;dn=The+Colony+2013+DVDRip+X264+AC-3-FooKaS&amp;tr=udp%3A%2F%2Ftracker.openbittorrent.com%3A80&amp;tr=udp%3A%2F%2Fopen.demonii.com%3A1337&amp;tr=udp%3A%2F%2Ftracker.coppersurfer.tk%3A6969&amp;tr=udp%3A%2F%2Fexodus.desync.com%3A6969","seeders":1,"leechers":0,"uploader":"xxxlavalxxx","files":-1,"time":1374433690,"description":" &lt;a href=&quot;\nhttp://www.imdb.com/title/tt1160996/&quot; rel=&quot;nofollow&quot; target=&quot;_NEW&quot;&gt;\nhttp://www.imdb.com/title/tt1160996/&lt;/a&gt;\n\n\n\nForced underground by the next ice age, a struggling outpost of survivors must fight to preserve humanity against a threat even more savage than nature. \n\n\n\nDirector:\n Jeff Renfroe \n\nWriters:\n Jeff Renfroe Svet Rouskov \n\nStars:\n Laurence Fishburne, Kevin Zegers, Bill Paxton \n\nGenres:\n  Action |  Sci-Fi |  Thriller \n\nCountry:\n Canada \n\nLanguage:\n English \n\n\n\nSource DVDR(a friend)THX\n &lt;a href=&quot;\nhttp://www.imdb.com/title/tt1160996/&quot; rel=&quot;nofollow&quot; target=&quot;_NEW&quot;&gt;\nhttp://www.imdb.com/title/tt1160996/&lt;/a&gt;\n\n INFO:\n\n Format                                   : Matroska\n Format version                           : Version 2\n File size                                : 1.80 GiB\n Duration                                 : 1h 34mn\n Overall bit rate                         : 2 732 Kbps\n Encoded date                             : UTC 2013-07-21 10:10:58\n Writing application                      : mkvmerge v6.2.0 ('Promised Land') built on Apr  28 2013 12 :22:01\n Writing library                          : libebml v1.3.0 + libmatroska v1.4.0\n\n Video:\n\n ID                                       : 1\n Format                                   : AVC\n Format/Info                              : Advanced Video Codec\n Format profile                           : &lt;a class=&quot;__cf_email__&quot; href=&quot;/cdn-cgi/l/email-protection&quot; data-cfemail=&quot;7a32131d123a3649544a&quot;&gt;[email&amp;#160;protected]&lt;/a&gt;&lt;script cf-hash='f9e31' type=&quot;text/javascript&quot;&gt;\n/* &lt;![CDATA[ */!function(){try{var t=&quot;currentScript&quot;in document?document.currentScript:function(){for(var t=document.getElementsByTagName(&quot;script&quot;),e=t.length;e--;)if(t[e].getAttribute(&quot;cf-hash&quot;))return t[e]}();if(t&amp;&amp;t.previousSibling){var e,r,n,i,c=t.previousSibling,a=c.getAttribute(&quot;data-cfemail&quot;);if(a){for(e=&quot;&quot;,r=parseInt(a.substr(0,2),16),n=2;a.length-n;n+=2)i=parseInt(a.substr(n,2),16)^r,e+=String.fromCharCode(i);e=document.createTextNode(e),c.parentNode.replaceChild(e,c)}}}catch(u){}}();/* ]]&gt; */&lt;/script&gt;\n Format settings, CABAC                   : Yes\n Format settings, ReFrames                : 4 frames\n Codec ID                                 : V_MPEG4/ISO/AVC\n Duration                                 : 1h 34mn\n Bit rate                                 : 2 346 Kbps\n Width                                    : 720 pixels\n Height                                   : 400 pixels\n Display aspect ratio                     : 16:9\n Frame rate mode                          : Constant\n Frame rate                               : 23.976 fps\n Color space                              : YUV\n Chroma subsampling                       : 4:2:0\n Bit depth                                : 8 bits\n Scan type                                : Progressive\n Bits/(Pixel*Frame)                       : 0.340\n Stream size                              : 1.51 GiB (84%)\n Writing library                          : x264 core 133 r2334 a3ac64b\n Default                                  : Yes\n Forced                                   : No\n\n Audio:\n\n ID                                       : 2\n Format                                   : AC-3\n Format/Info                              : Audio Coding 3\n Mode extension                           : CM (complete main)\n Format settings, Endianness              : Big\n Codec ID                                 : A_AC3\n Duration                                 : 1h 34mn\n Bit rate mode                            : Constant\n Bit rate                                 : 384 Kbps\n Channel(s)                               : 6 channels\n Channel positions                        : Front: L C R, Side: L R, LFE\n Sampling rate                            : 48.0 KHz\n Bit depth                                : 16 bits\n Compression mode                         : Lossy\n Stream size                              : 259 MiB (14%)\n Language                                 : English\n Default                                  : Yes\n Forced                                   : No\n\n Text:\n\n ID                                       : 3\n Format                                   : VobSub\n Muxing mode                              : zlib\n Codec ID                                 : S_VOBSUB\n Codec ID/Info                            : The same subtitle format used on DVDs\n Language                                 : English\n Default                                  : No\n Forced                                   : No\n encoder                                  : db420\n\n\n\n\n\n\nscreens\n\n\n    &lt;a href=&quot;\thttp://addpix.net/viewer.php?file=31977392143117355457.jpg&quot; rel=&quot;nofollow&quot; target=&quot;_NEW&quot;&gt;\thttp://addpix.net/viewer.php?file=31977392143117355457.jpg&lt;/a&gt;\n    &lt;a href=&quot;\thttp://addpix.net/viewer.php?file=33118130777919572067.jpg&quot; rel=&quot;nofollow&quot; target=&quot;_NEW&quot;&gt;\thttp://addpix.net/viewer.php?file=33118130777919572067.jpg&lt;/a&gt;\n    &lt;a href=&quot;\thttp://addpix.net/viewer.php?file=59763070484542222714.jpg&quot; rel=&quot;nofollow&quot; target=&quot;_NEW&quot;&gt;\thttp://addpix.net/viewer.php?file=59763070484542222714.jpg&lt;/a&gt;\n    &lt;a href=&quot;\thttp://addpix.net/viewer.php?file=93353782862461052537.jpg&quot; rel=&quot;nofollow&quot; target=&quot;_NEW&quot;&gt;\thttp://addpix.net/viewer.php?file=93353782862461052537.jpg&lt;/a&gt;\n    &lt;a href=&quot;\thttp://addpix.net/viewer.php?file=71911362313756150526.jpg&quot; rel=&quot;nofollow&quot; target=&quot;_NEW&quot;&gt;\thttp://addpix.net/viewer.php?file=71911362313756150526.jpg&lt;/a&gt;","torrent":{"xt":"urn:btih:5d6c29ccd6cf837f88dcfd31ce7eb55944f6fa8a","amp;dn":"The+Colony+2013+DVDRip+X264+AC-3-FooKaS","amp;tr":["udp%3A%2F%2Ftracker.openbittorrent.com%3A80","udp%3A%2F%2Fopen.demonii.com%3A1337","udp%3A%2F%2Ftracker.coppersurfer.tk%3A6969","udp%3A%2F%2Fexodus.desync.com%3A6969"],"infoHash":"5d6c29ccd6cf837f88dcfd31ce7eb55944f6fa8a","infoHashBuffer":{"type":"Buffer","data":[93,108,41,204,214,207,131,127,136,220,253,49,206,126,181,89,68,246,250,138]},"announce":[],"urlList":[]}}